<?xml version="1.0" encoding="utf-8"?><svg xmlns="http://www.w3.org/2000/svg" xmlns:xlink="http://www.w3.org/1999/xlink"><symbol viewBox="0 0 37 29" id="icon_menu" xmlns="http://www.w3.org/2000/svg">
<path d="M35.4583 26H1.54167C0.690667 26 0 26.672 0 27.5C0 28.328 0.690667 29 1.54167 29H35.4583C36.3093 29 37 28.328 37 27.5C37 26.672 36.3093 26 35.4583 26Z"/>
<path d="M35.5 0H14.5C13.672 0 13 0.672 13 1.5C13 2.328 13.672 3 14.5 3H35.5C36.328 3 37 2.328 37 1.5C37 0.672 36.328 0 35.5 0Z"/>
<path d="M35.4583 9H1.54167C0.690667 9 0 9.672 0 10.5C0 11.328 0.690667 12 1.54167 12H35.4583C36.3093 12 37 11.328 37 10.5C37 9.672 36.3093 9 35.4583 9Z"/>
<path d="M35.5 18H14.5C13.672 18 13 18.672 13 19.5C13 20.328 13.672 21 14.5 21H35.5C36.328 21 37 20.328 37 19.5C37 18.672 36.328 18 35.5 18Z"/>
</symbol><symbol viewBox="0 0 50 50" id="inst" xmlns="http://www.w3.org/2000/svg">    <path d="M 16 3 C 8.83 3 3 8.83 3 16 L 3 34 C 3 41.17 8.83 47 16 47 L 34 47 C 41.17 47 47 41.17 47 34 L 47 16 C 47 8.83 41.17 3 34 3 L 16 3 z M 37 11 C 38.1 11 39 11.9 39 13 C 39 14.1 38.1 15 37 15 C 35.9 15 35 14.1 35 13 C 35 11.9 35.9 11 37 11 z M 25 14 C 31.07 14 36 18.93 36 25 C 36 31.07 31.07 36 25 36 C 18.93 36 14 31.07 14 25 C 14 18.93 18.93 14 25 14 z M 25 16 C 20.04 16 16 20.04 16 25 C 16 29.96 20.04 34 25 34 C 29.96 34 34 29.96 34 25 C 34 20.04 29.96 16 25 16 z"/></symbol><symbol viewBox="0 0 50 50" id="me" xmlns="http://www.w3.org/2000/svg"><path d="M 25.300781 3 C 15.790781 3 7.7008594 8.6803125 4.3808594 17.570312 C 7.0908594 14.590313 10.679609 13 14.849609 13 L 14.880859 13 C 21.350859 13.01 28.189219 17.100547 30.449219 22.310547 L 30.439453 22.310547 C 31.249453 23.890547 31.060781 25.520781 30.800781 26.550781 C 30.500781 27.720781 30.050859 28.270234 29.880859 28.490234 L 29.789062 28.609375 C 29.459063 29.019375 29.510391 29.620469 29.900391 29.980469 C 29.970391 30.040469 30.080469 30.120703 30.230469 30.220703 L 30.490234 30.380859 C 31.760234 31.180859 34.630469 32 37.230469 32 C 39.220469 32 41.819766 31.690234 44.259766 29.240234 C 48.359766 25.140234 46.779219 19.419766 46.199219 17.759766 C 45.209219 14.949766 41.100313 5.6101563 29.570312 3.4101562 C 28.170312 3.1401562 26.730781 3 25.300781 3 z M 14.849609 15 C 9.6496094 15 5.4800781 17.910937 3.0800781 23.210938 C 2.2900781 32.370937 7.8394531 40.589531 14.439453 44.269531 C 15.389453 44.799531 18.409141 46.320312 22.619141 46.820312 C 18.899141 45.060313 16.069531 41.99 14.769531 38 C 12.609531 31.37 15.319922 24.290703 21.669922 19.970703 L 21.679688 19.980469 C 22.639688 19.350469 23.809766 18.990234 25.009766 18.990234 C 25.149766 18.990234 25.279922 18.989766 25.419922 19.009766 C 22.609922 16.609766 18.630859 15.01 14.880859 15 L 14.849609 15 z M 19 25.169922 C 16.22 28.739922 15.309687 33.170859 16.679688 37.380859 C 18.489687 42.940859 23.780469 46.460469 30.230469 46.480469 C 35.250469 45.360469 39.619297 42.429219 43.279297 37.699219 L 43.369141 37.580078 C 43.619141 37.210078 43.600313 36.719141 43.320312 36.369141 C 43.030313 36.029141 42.550625 35.909844 42.140625 36.089844 L 41.660156 36.310547 C 41.460156 36.400547 41.280547 36.459063 41.060547 36.539062 C 40.830547 36.619063 40.570469 36.719375 40.230469 36.859375 C 38.940469 37.389375 37.020938 37.689453 34.960938 37.689453 C 33.230937 37.689453 31.540937 37.470312 30.210938 37.070312 C 28.330937 36.510312 22.599375 34.779688 19.609375 28.179688 C 19.239375 27.359688 18.99 26.309922 19 25.169922 z"/></symbol></svg>